<svg width="36" height="36" viewBox="0 0 36 36" fill="none" xmlns="http://www.w3.org/2000/svg">
<circle cx="18" cy="18" r="18" fill="white"/>
<path fill-rule="evenodd" clip-rule="evenodd" d="M10.063 7.25H13.814C13.9665 7.25 14.1154 7.29652 14.2409 7.38336C14.3663 7.47019 14.4623 7.59321 14.516 7.736L15.972 11.606C16.0199 11.734 16.032 11.8726 16.007 12.007L15.277 15.919C16.174 18.027 17.655 19.444 20.11 20.715L23.975 19.965C24.1123 19.9385 24.2543 19.951 24.385 20.001L28.267 21.481C28.4089 21.5351 28.531 21.6309 28.6173 21.7559C28.7035 21.8809 28.7498 22.0291 28.75 22.181V25.765C28.75 27.391 27.318 28.71 25.642 28.345C22.589 27.681 16.932 25.992 12.97 22.03C9.17395 18.235 7.90195 12.993 7.47495 10.16C7.22995 8.542 8.52695 7.25 10.063 7.25Z" fill="#6A704C"/>
</svg>
